<?xml version="1.0" standalone="no"?>
<!DOCTYPE svg PUBLIC "-//W3C//DTD SVG 20010904//EN"
 "http://www.w3.org/TR/2001/REC-SVG-20010904/DTD/svg10.dtd">
<svg version="1.0" xmlns="http://www.w3.org/2000/svg"
 width="640.000000pt" height="640.000000pt" viewBox="0 0 640.000000 640.000000"
 preserveAspectRatio="xMidYMid meet">
<metadata>
Created by potrace 1.14, written by Peter Selinger 2001-2017
</metadata>
<g transform="translate(0.000000,640.000000) scale(0.100000,-0.100000)"
fill="#000000" stroke="none">
<path d="M1 4888 c1 -832 5 -1495 9 -1473 5 22 14 91 20 153 10 106 46 308 70
397 60 219 66 236 136 415 78 198 105 253 232 465 212 356 523 694 862 936
127 92 216 151 252 170 15 8 69 37 120 65 104 58 292 142 413 186 235 86 641
176 807 179 29 1 64 5 78 9 14 4 -656 8 -1487 9 l-1513 1 1 -1512z"/>
<path d="M3385 6390 c11 -5 43 -9 71 -9 138 -2 441 -58 639 -118 253 -76 604
-231 737 -324 14 -11 29 -19 32 -19 7 0 101 -64 211 -144 433 -312 811 -776
1026 -1258 224 -502 306 -942 279 -1485 -12 -252 -41 -435 -106 -670 -24 -90
-49 -173 -54 -186 -5 -12 -21 -53 -35 -92 -15 -38 -36 -90 -47 -115 -11 -25
-36 -81 -55 -125 -19 -43 -38 -84 -42 -90 -5 -5 -27 -44 -49 -86 -139 -268
-383 -576 -650 -822 -108 -100 -353 -289 -431 -333 -54 -31 -68 -39 -82 -51
-29 -23 -209 -118 -304 -161 -249 -110 -481 -184 -724 -231 -216 -42 -269 -46
-616 -46 -350 1 -347 1 -605 49 -607 114 -1202 436 -1652 895 -218 222 -369
424 -541 726 -72 126 -196 424 -240 577 -73 251 -125 523 -128 662 -1 28 -5
62 -9 76 -4 14 -8 -658 -9 -1492 l-1 -1518 3200 0 3200 0 0 3200 0 3200 -1517
-1 c-856 0 -1509 -4 -1498 -9z"/>
<path d="M2965 6228 c-313 -34 -449 -60 -674 -133 -156 -50 -286 -100 -351
-135 -25 -13 -68 -33 -95 -45 -49 -20 -128 -65 -230 -130 -27 -17 -73 -46
-102 -64 -28 -18 -67 -45 -85 -61 -18 -17 -36 -30 -39 -30 -19 0 -223 -175
-339 -290 -79 -79 -200 -216 -253 -288 -82 -110 -131 -180 -149 -213 -9 -17
-23 -38 -31 -47 -38 -45 -198 -359 -242 -477 -122 -328 -172 -547 -205 -910
-26 -280 9 -647 90 -960 22 -87 96 -314 110 -337 5 -10 10 -23 10 -30 0 -7 20
-53 44 -103 24 -49 52 -108 62 -130 45 -98 153 -277 241 -398 29 -40 65 -89
80 -110 69 -95 347 -378 473 -481 141 -115 392 -280 532 -348 188 -93 266
-128 280 -128 8 0 18 -4 24 -9 9 -9 253 -87 354 -114 322 -86 836 -105 1225
-46 117 18 255 49 345 78 47 15 117 38 155 50 345 110 753 353 1034 616 174
163 324 327 409 449 113 163 282 440 282 463 0 3 18 42 39 87 57 116 66 140
112 277 54 164 94 323 114 450 9 57 21 129 28 159 16 76 16 645 0 720 -7 30
-17 91 -23 135 -24 175 -98 442 -179 644 -71 176 -233 469 -339 612 -18 24
-56 76 -84 114 -101 137 -367 404 -525 527 -164 127 -347 243 -508 321 -175
86 -236 111 -404 167 -385 128 -845 186 -1186 148z m375 -136 c102 -51 123
-71 126 -123 2 -24 3 -47 3 -50 1 -4 10 -9 21 -12 24 -6 38 -56 19 -68 -8 -5
-9 -9 -3 -9 5 0 16 6 24 13 8 6 12 8 8 3 -4 -5 -1 -20 6 -35 13 -26 16 -86 5
-106 -3 -5 -7 -32 -8 -58 -1 -36 -8 -56 -27 -75 -13 -15 -24 -32 -24 -37 0
-17 -50 -81 -50 -64 -1 9 -4 8 -12 -5 -8 -15 -8 -21 0 -24 18 -6 -39 -49 -89
-67 -24 -10 -59 -24 -77 -32 -23 -10 -47 -12 -74 -8 -23 4 -59 7 -81 7 -41 -1
-117 31 -117 48 0 6 -4 10 -10 10 -5 0 -10 -9 -10 -20 0 -42 -46 -8 -60 44 -3
11 -16 21 -29 23 -24 3 -60 39 -61 61 0 6 -4 12 -10 12 -5 0 -10 5 -10 12 0 6
-10 32 -22 57 -54 112 -3 304 112 414 33 32 76 65 97 73 21 8 52 21 68 28 17
8 37 16 45 19 8 4 51 5 95 4 67 -2 90 -8 145 -35z m650 -332 c0 -5 -4 -10 -10
-10 -5 0 -10 5 -10 10 0 6 5 10 10 10 6 0 10 -4 10 -10z m87 -22 c-4 -25 -32
-46 -44 -34 -4 4 0 12 10 17 9 6 17 17 17 24 0 8 4 15 10 15 5 0 8 -10 7 -22z
m-87 -103 c0 -35 -13 -47 -23 -21 -7 18 3 56 14 56 5 0 9 -16 9 -35z m-625
-504 c186 -13 454 -77 598 -145 29 -14 57 -26 61 -26 4 0 28 -16 53 -35 25
-19 51 -35 58 -35 6 0 30 -16 52 -35 23 -19 45 -35 50 -35 5 0 18 -8 29 -18
11 -10 32 -27 47 -36 15 -10 27 -25 27 -32 0 -8 9 -14 19 -14 11 0 33 -14 50
-30 17 -17 55 -48 85 -68 57 -39 111 -98 157 -172 15 -25 42 -56 58 -68 17
-12 39 -39 49 -60 25 -50 44 -83 60 -100 6 -7 12 -29 12 -49 0 -27 3 -34 15
-29 11 4 19 -3 27 -22 7 -15 17 -34 24 -42 7 -8 22 -48 34 -88 12 -40 28 -78
35 -85 24 -25 45 -77 54 -134 4 -32 12 -66 16 -75 4 -11 3 -18 -4 -18 -16 0
-13 -31 5 -51 9 -10 18 -40 21 -66 3 -26 12 -64 21 -83 13 -29 16 -77 17 -285
1 -216 -1 -259 -18 -320 -10 -38 -29 -113 -43 -165 -36 -144 -40 -150 -84
-150 -44 0 -49 7 -59 95 -10 75 7 142 43 178 14 14 26 36 26 47 0 12 5 18 10
15 11 -7 13 6 4 28 -4 12 -11 13 -35 3 -26 -9 -32 -8 -40 7 -6 9 -19 26 -31
36 -21 20 -17 41 6 41 8 0 33 -9 57 -20 60 -27 77 -25 85 7 8 30 -12 50 -58
60 -31 6 -42 27 -28 53 15 28 12 49 -4 27 -12 -16 -14 -16 -20 -1 -9 22 -7 57
3 73 7 11 13 10 32 -3 24 -15 69 -12 69 5 0 25 -23 60 -48 73 -35 18 -67 98
-51 127 5 10 9 20 9 22 0 2 -30 4 -67 3 l-67 -1 -29 55 c-15 30 -35 62 -43 71
-8 9 -19 33 -25 52 -5 20 -18 38 -28 42 -26 8 -32 29 -19 65 7 22 7 35 0 42
-16 16 -32 0 -32 -33 0 -21 -7 -32 -23 -40 -13 -6 -32 -24 -41 -41 -14 -23
-23 -28 -41 -24 -36 9 -83 -4 -88 -25 -6 -24 -19 -24 -47 -1 -26 21 -20 42 11
42 12 0 23 10 29 25 11 30 37 42 53 26 18 -18 27 -13 27 18 0 15 10 41 22 56
51 65 23 194 -39 179 -22 -6 -24 -4 -18 15 6 20 3 21 -64 21 -70 0 -82 -5 -60
-27 7 -7 9 -19 5 -28 -10 -27 -44 0 -48 38 -2 26 -8 33 -28 35 -31 5 -50 20
-50 41 -1 30 -55 78 -96 85 -94 17 -144 -2 -144 -52 0 -40 -13 -54 -42 -47
-17 4 -36 0 -59 -14 -60 -37 -79 -25 -79 46 0 27 -3 34 -15 29 -11 -4 -15 2
-15 20 0 13 -7 27 -15 30 -8 4 -13 10 -10 15 3 4 12 6 20 3 21 -9 30 23 15 52
-11 20 -11 27 4 43 15 17 26 19 70 14 28 -3 54 -11 58 -16 4 -8 25 -7 66 0 41
8 74 8 106 1 74 -16 86 -5 61 55 -5 13 -2 17 12 17 11 0 30 11 42 24 l23 24
35 -21 c19 -12 46 -32 60 -45 14 -13 57 -40 96 -60 40 -20 74 -40 75 -44 6
-13 29 -9 41 6 8 10 5 20 -14 42 -14 16 -30 35 -36 42 -5 6 -19 12 -30 12 -11
0 -24 10 -29 23 -5 12 -9 16 -9 8 -1 -8 -4 -11 -7 -8 -4 4 -1 13 6 21 10 13 6
22 -19 53 -23 28 -31 48 -31 78 0 23 -4 45 -9 51 -5 5 -14 45 -20 88 -6 44
-13 82 -15 84 -3 2 -24 8 -47 13 -24 6 -49 19 -57 30 -9 13 -21 19 -34 16 -12
-4 -26 2 -36 14 -19 22 -57 24 -92 4 -34 -20 -37 -19 -43 13 -6 28 -7 28 -64
26 -32 -1 -61 -3 -65 -3 -4 -1 -16 -10 -26 -21 -13 -14 -47 -26 -98 -36 -43
-9 -83 -20 -89 -25 -5 -5 -21 -9 -36 -9 -16 0 -49 -11 -75 -25 -26 -14 -57
-25 -69 -25 -35 0 -79 58 -140 184 -64 131 -100 191 -118 191 -7 0 -13 -20
-15 -49 -2 -36 0 -47 10 -44 19 7 71 -77 63 -101 -3 -11 0 -23 8 -28 16 -10
68 -99 61 -105 -2 -3 2 -11 11 -18 8 -7 15 -23 15 -36 0 -14 6 -24 14 -24 7 0
16 -12 19 -28 3 -15 15 -38 26 -51 11 -13 23 -31 26 -41 3 -10 12 -21 20 -24
8 -3 12 -12 9 -20 -3 -8 5 -21 18 -30 17 -12 22 -25 22 -56 -1 -24 4 -41 12
-44 8 -3 14 -12 14 -20 0 -8 13 -25 29 -39 16 -13 46 -60 66 -103 20 -44 40
-87 45 -96 6 -10 10 -27 10 -38 0 -14 7 -20 21 -20 15 0 19 -4 15 -16 -7 -20
10 -54 28 -54 8 0 16 -9 19 -21 4 -15 2 -19 -9 -15 -8 3 -14 1 -14 -4 0 -6 6
-10 14 -10 8 0 22 -20 32 -45 9 -25 20 -45 25 -45 5 0 13 -19 19 -41 7 -27 18
-43 31 -46 10 -3 19 -14 19 -24 0 -10 4 -20 9 -24 5 -3 12 -18 16 -35 3 -16
20 -46 37 -67 31 -39 53 -81 49 -97 -1 -4 17 -28 40 -53 28 -30 39 -51 36 -64
-3 -10 -1 -19 4 -19 5 0 9 -15 9 -34 0 -23 7 -40 19 -48 10 -7 25 -27 33 -43
9 -17 25 -39 37 -49 12 -11 21 -27 21 -36 0 -10 9 -29 20 -43 11 -14 20 -32
20 -40 0 -9 3 -17 8 -19 4 -1 17 -24 30 -50 13 -27 28 -48 34 -48 5 0 8 -6 5
-14 -3 -8 1 -17 9 -20 9 -3 12 -10 9 -16 -4 -6 -11 -8 -16 -5 -5 4 -9 -2 -9
-11 0 -14 3 -15 12 -6 7 7 15 12 19 12 10 0 59 -115 59 -139 0 -11 5 -21 10
-21 16 0 59 -53 60 -72 0 -10 9 -27 20 -38 11 -11 24 -39 29 -62 6 -24 15 -44
20 -46 6 -2 11 -10 11 -18 0 -8 6 -17 14 -20 17 -6 56 -77 56 -99 0 -17 18
-52 38 -73 6 -7 12 -20 12 -27 0 -8 9 -21 21 -29 12 -8 18 -19 15 -24 -7 -11
25 -71 61 -115 13 -16 23 -35 23 -42 0 -20 34 -75 46 -75 6 0 14 -13 17 -29 3
-16 13 -35 21 -44 8 -8 18 -26 22 -41 3 -14 12 -26 18 -26 17 0 40 -45 32 -59
-11 -17 3 -51 19 -45 9 4 15 -4 17 -23 2 -20 9 -29 26 -31 21 -3 32 -22 12
-22 -5 0 -10 -9 -10 -20 0 -12 7 -20 18 -20 9 0 22 -10 27 -23 22 -46 60 -112
68 -115 4 -2 7 -14 7 -28 0 -16 4 -22 14 -18 16 6 41 -31 31 -46 -5 -7 -474
-17 -594 -11 -19 1 -37 -2 -40 -6 -9 -12 -79 -43 -96 -43 -22 0 -19 10 25 68
119 157 155 248 141 359 -14 111 -24 116 -98 48 -26 -25 -51 -45 -55 -45 -4 0
-38 -27 -75 -60 -37 -34 -86 -73 -108 -87 -22 -15 -49 -35 -60 -44 -32 -27
-248 -135 -327 -164 -383 -139 -733 -169 -1072 -90 -237 54 -360 99 -458 166
-40 27 -90 54 -111 60 -43 11 -116 56 -197 120 -30 23 -63 50 -74 58 -68 54
-126 116 -126 136 0 11 11 36 24 54 13 17 29 52 35 77 6 24 20 53 31 64 10 10
30 51 44 90 13 39 36 86 49 104 14 18 33 50 42 72 9 21 27 51 41 65 16 17 28
44 33 77 4 28 20 69 34 90 15 21 27 42 27 47 0 11 31 45 41 45 5 0 21 -19 36
-42 15 -24 30 -45 33 -48 3 -3 12 -18 20 -35 15 -28 50 -44 105 -48 11 0 25
-8 31 -16 10 -13 18 -12 63 5 40 15 57 28 74 56 17 31 19 41 9 63 -15 33 -67
36 -77 4 -8 -24 -57 -98 -65 -99 -3 0 -5 52 -5 116 0 98 3 117 18 128 9 7 17
18 17 24 0 6 28 10 73 9 39 0 91 3 114 7 39 8 43 6 77 -27 19 -19 44 -38 56
-42 11 -3 20 -11 20 -16 0 -5 5 -9 10 -9 6 0 10 7 10 15 0 8 4 15 10 15 11 0
23 -40 24 -83 1 -24 7 -33 32 -43 26 -11 35 -10 53 2 43 30 17 94 -47 115 -20
6 -50 27 -65 45 -16 18 -42 36 -58 39 -16 4 -31 11 -34 16 -4 5 -16 9 -28 9
-13 0 -38 8 -57 18 -70 37 -115 64 -135 82 -13 11 -45 20 -90 24 -38 4 -71 8
-73 10 -1 2 7 20 19 40 18 30 26 36 55 36 39 0 45 17 14 45 -27 24 -25 61 5
110 25 41 121 235 156 315 11 25 25 54 32 65 6 11 33 65 59 120 27 55 58 116
69 135 11 19 47 89 80 155 33 66 70 138 83 160 33 56 106 202 106 212 0 4 17
42 38 84 43 83 58 145 40 166 -14 18 -28 16 -28 -3 0 -8 -15 -29 -34 -47 -19
-18 -37 -42 -41 -54 -3 -13 -10 -23 -15 -23 -5 0 -11 -14 -15 -31 -6 -28 -51
-127 -95 -209 -11 -19 -27 -56 -37 -82 -10 -27 -21 -48 -25 -48 -5 0 -8 -9 -8
-20 0 -10 -11 -30 -24 -43 -12 -13 -26 -40 -30 -61 -4 -20 -16 -45 -27 -54
-10 -9 -19 -24 -19 -34 0 -9 -11 -29 -25 -44 -14 -15 -25 -37 -25 -48 0 -12
-4 -26 -9 -31 -5 -6 -14 -27 -21 -47 -6 -21 -19 -44 -29 -50 -9 -7 -23 -32
-31 -56 -7 -24 -21 -47 -30 -52 -9 -5 -25 -33 -34 -63 -9 -29 -32 -76 -51
-105 -21 -30 -35 -63 -35 -82 0 -16 -4 -30 -10 -30 -5 0 -13 -12 -16 -27 -4
-16 -18 -39 -30 -52 -13 -13 -21 -27 -19 -31 3 -5 -11 -35 -30 -67 -19 -32
-35 -63 -35 -70 0 -13 -40 -85 -51 -93 -4 -3 -11 -18 -14 -33 -4 -16 -14 -31
-21 -34 -8 -3 -14 -16 -14 -28 0 -25 -57 -125 -71 -125 -5 0 -9 -13 -9 -30 0
-16 -4 -30 -10 -30 -5 0 -10 -6 -10 -14 0 -23 -112 -236 -121 -230 -5 3 -9 -5
-9 -18 0 -30 -90 -214 -124 -253 -15 -16 -29 -40 -32 -52 -4 -13 -10 -23 -15
-23 -5 0 -9 -15 -7 -34 1 -19 -4 -41 -11 -50 -7 -9 -11 -25 -8 -36 3 -11 1
-23 -5 -26 -6 -4 -22 -32 -36 -63 -20 -46 -25 -69 -23 -131 1 -52 7 -80 18
-92 9 -10 13 -18 8 -18 -4 0 0 -11 9 -25 9 -13 16 -31 16 -40 0 -8 5 -15 10
-15 6 0 10 -7 10 -16 0 -9 8 -18 18 -21 22 -6 65 -72 58 -89 -4 -11 -31 -14
-108 -14 -57 0 -148 -3 -203 -6 -55 -3 -139 -6 -187 -7 -47 -1 -84 -5 -82 -8
2 -4 -16 -10 -41 -13 -24 -4 -47 -11 -50 -17 -4 -5 -17 -9 -31 -9 -28 0 -33
30 -9 50 8 7 15 17 15 22 0 6 31 67 69 137 104 192 122 223 148 261 12 19 23
37 23 41 0 3 33 65 74 137 41 71 77 139 81 151 5 16 -4 41 -32 89 -40 69 -83
156 -111 227 -8 22 -22 49 -29 61 -16 25 -69 180 -84 244 -56 239 -59 579 -10
860 16 90 72 260 120 366 41 91 107 221 121 239 4 6 20 33 35 60 46 83 128
185 237 296 233 236 417 348 798 489 89 32 227 59 354 69 77 6 141 13 144 16
7 7 66 6 227 -4z m-1953 -58 c36 -34 35 -43 -5 -69 l-33 -21 -32 27 -32 27 27
30 c35 39 40 39 75 6z m178 2 c0 -27 -30 -48 -54 -39 -34 13 -14 64 25 64 24
0 29 -4 29 -25z m-100 -121 c0 -9 -5 -14 -12 -12 -18 6 -21 28 -4 28 9 0 16
-7 16 -16z m-50 -30 c0 -8 -4 -12 -10 -9 -5 3 -10 10 -10 16 0 5 5 9 10 9 6 0
10 -7 10 -16z m224 -50 c22 -9 20 -24 -3 -24 -21 0 -34 13 -24 24 8 7 8 7 27
0z m-180 -83 c18 -15 22 -51 6 -51 -5 0 -10 7 -10 15 0 8 -6 15 -12 15 -20 0
-41 52 -26 62 8 4 15 0 19 -10 4 -10 14 -24 23 -31z m127 -17 c-12 -19 -21
-48 -21 -65 0 -21 -5 -29 -18 -29 -29 0 -34 12 -12 27 11 8 20 25 20 39 0 27
42 92 48 74 2 -5 -6 -26 -17 -46z m-54 -20 c-3 -3 -12 -4 -19 -1 -8 3 -5 6 6
6 11 1 17 -2 13 -5z m2450 -60 c31 0 51 -7 70 -25 16 -14 42 -31 58 -38 l30
-13 -43 -19 c-43 -19 -44 -19 -85 3 -23 12 -55 21 -71 21 -35 -2 -76 23 -76
47 0 9 9 25 20 35 11 10 22 27 26 38 6 19 8 17 18 -13 10 -33 14 -35 53 -36z
m-2482 16 c3 -5 1 -10 -4 -10 -6 0 -11 5 -11 10 0 6 2 10 4 10 3 0 8 -4 11
-10z m2124 -83 c8 -10 3 -25 -19 -61 -17 -26 -30 -55 -30 -64 0 -46 -55 -57
-70 -14 -6 15 -19 43 -30 63 -20 37 -26 70 -13 82 13 13 150 8 162 -6z m112
-61 c5 3 9 0 9 -6 0 -15 -23 -7 -26 8 -1 7 0 8 3 2 2 -5 9 -8 14 -4z m179 -1
c0 -8 -7 -15 -15 -15 -26 0 -18 20 13 29 1 1 2 -6 2 -14z m-51 -204 c23 -15 5
-41 -28 -41 -33 0 -46 13 -37 35 6 17 43 20 65 6z m541 -472 c0 -5 -4 -9 -10
-9 -5 0 -10 -18 -10 -40 0 -22 -4 -40 -9 -40 -5 0 -11 -10 -14 -22 -4 -12 -9
-19 -13 -15 -4 3 -15 2 -25 -4 -24 -12 -59 5 -59 28 0 20 29 53 47 53 7 0 13
8 13 19 0 10 10 25 22 33 23 15 58 13 58 -3z m-250 7 c0 -2 3 -11 6 -20 5 -13
-2 -16 -35 -16 -44 0 -44 0 -35 24 5 14 64 24 64 12z m1455 -46 c12 -39 -25
-57 -45 -21 -16 30 -12 41 14 41 16 0 27 -7 31 -20z m-1410 0 c3 -5 -1 -10 -9
-10 -9 0 -16 5 -16 10 0 6 4 10 9 10 6 0 13 -4 16 -10z m1175 -92 c0 -13 14
-38 31 -56 43 -46 25 -65 -22 -24 -19 16 -42 32 -52 35 -17 6 -16 9 4 37 27
36 39 38 39 8z m-1365 2 c-3 -5 -11 -10 -16 -10 -6 0 -7 5 -4 10 3 6 11 10 16
10 6 0 7 -4 4 -10z m1685 -129 c0 -5 -9 -19 -21 -32 -11 -13 -18 -19 -15 -12
4 6 -1 18 -9 26 -11 12 -12 17 -2 20 20 9 47 8 47 -2z m194 -54 c9 -15 7 -22
-13 -38 -47 -39 -95 -2 -55 42 21 23 52 21 68 -4z m-1839 -22 c0 -16 -6 -30
-12 -32 -9 -3 -13 7 -13 32 0 25 4 35 13 33 6 -3 12 -17 12 -33z m525 -30 c23
-28 -33 -55 -65 -31 -16 12 -17 16 -6 30 17 20 55 21 71 1z m104 -59 c31 -33
31 -34 14 -62 -48 -82 -71 -68 -72 43 -1 64 13 69 58 19z m-283 -105 c3 -24 3
-61 -1 -83 -8 -40 4 -54 13 -17 5 19 11 21 38 15 41 -8 40 -6 43 -58 2 -23 1
-37 -1 -30 -7 18 -21 14 -28 -8 -9 -28 21 -74 42 -66 20 8 53 -21 53 -46 0
-22 -28 -68 -42 -68 -9 0 -105 96 -157 156 -28 33 -33 106 -10 141 15 21 18
38 13 71 -6 39 -5 44 12 40 14 -2 21 -15 25 -47z m432 -73 c44 -23 48 -40 18
-73 -15 -16 -28 -41 -29 -55 -1 -32 -29 -53 -53 -40 -25 14 -45 12 -63 -5 -14
-14 -16 -13 -22 9 -7 28 1 46 20 46 6 0 17 20 24 45 9 33 20 50 45 65 38 24
33 23 60 8z m-4019 -127 c34 -37 -24 -72 -75 -46 -24 13 -28 19 -19 34 18 35
68 41 94 12z m3552 -72 c32 -39 75 -89 95 -112 42 -50 79 -112 79 -134 0 -24
40 -73 59 -73 14 0 20 -11 25 -50 5 -35 13 -53 26 -60 11 -6 20 -7 20 -3 0 19
24 -20 26 -43 4 -41 12 -54 35 -62 20 -8 49 -67 49 -103 0 -9 9 -24 20 -34 11
-10 20 -31 20 -46 0 -15 7 -35 16 -44 11 -10 13 -20 6 -28 -5 -7 -15 -30 -22
-52 -18 -56 -30 -59 -59 -17 -13 20 -40 54 -59 76 -19 21 -46 64 -60 95 -14
31 -35 70 -48 86 -53 73 -86 153 -118 297 -3 15 -15 35 -25 45 -10 10 -32 45
-50 77 -18 32 -51 82 -75 110 -74 89 -95 138 -63 149 25 8 46 -6 103 -74z
m364 -162 c0 -13 4 -27 9 -32 14 -16 31 -99 21 -109 -19 -19 -34 13 -44 91 -1
13 -6 26 -9 30 -13 12 -7 43 8 43 9 0 15 -9 15 -23z m-4044 -84 c-10 -10 -19
5 -10 18 6 11 8 11 12 0 2 -7 1 -15 -2 -18z m4180 -310 c7 -10 14 -35 14 -56
0 -34 -2 -37 -19 -28 -28 15 -40 101 -14 101 3 0 12 -8 19 -17z m564 -615 c-4
-42 -16 -68 -36 -78 -31 -17 -41 -50 -20 -66 15 -11 15 -12 0 -18 -10 -4 -21
0 -29 11 -11 15 -15 15 -49 -5 -21 -12 -47 -22 -59 -22 -18 0 -17 3 11 17 18
9 35 26 38 39 6 25 19 31 29 14 11 -18 25 -11 25 13 0 13 9 26 22 32 13 6 24
19 26 30 6 37 12 46 27 43 9 -2 16 -6 15 -10z m-160 -38 c0 -5 -7 -10 -15 -10
-8 0 -15 5 -15 10 0 6 7 10 15 10 8 0 15 -4 15 -10z m-110 -140 c0 -5 -2 -10
-4 -10 -3 0 -8 5 -11 10 -3 6 -1 10 4 10 6 0 11 -4 11 -10z m40 -50 c0 -5 -2
-10 -4 -10 -3 0 -8 5 -11 10 -3 6 -1 10 4 10 6 0 11 -4 11 -10z m-1195 -424
c26 -19 13 -46 -23 -46 -15 0 -37 6 -47 14 -16 12 -17 16 -6 30 16 20 51 21
76 2z m-2109 -197 l29 -31 -24 -19 c-13 -10 -31 -19 -41 -19 -10 0 -28 9 -41
19 l-24 19 29 31 c17 17 33 31 36 31 3 0 19 -14 36 -31z m333 -131 c21 -59 22
-76 2 -83 -11 -3 -34 -19 -52 -36 -17 -16 -39 -29 -48 -29 -14 0 -14 2 -1 10
10 7 11 10 2 10 -7 0 -17 -12 -22 -26 -6 -14 -14 -23 -18 -20 -5 3 -25 -6 -45
-19 -20 -14 -40 -25 -45 -25 -5 0 -17 -9 -27 -20 -10 -11 -24 -20 -30 -20 -19
0 -36 -25 -30 -42 7 -19 124 -49 155 -41 17 4 21 2 18 -8 -6 -18 -53 -16 -143
6 -79 19 -96 26 -98 39 -2 9 5 13 53 35 40 19 121 77 136 100 19 26 9 61 -17
61 -10 0 -19 4 -19 10 0 18 41 31 89 29 26 -1 53 1 60 5 23 14 25 -4 3 -25
-13 -11 -20 -24 -17 -30 11 -16 25 -10 35 16 5 14 14 25 19 25 13 0 35 40 27
47 -3 3 -12 0 -21 -7 -18 -15 -18 -12 -4 29 13 37 26 40 38 9z m-259 -83 c26
-32 -18 -63 -48 -33 -9 9 -8 16 5 30 20 22 27 22 43 3z m153 -100 c-3 -9 -8
-14 -10 -11 -3 3 -2 9 2 15 9 16 15 13 8 -4z"/>
<path d="M3121 5950 c-18 -4 -37 -13 -41 -20 -4 -6 -17 -12 -28 -13 -12 -1
-22 -7 -22 -13 0 -7 -16 -28 -35 -46 -28 -27 -35 -41 -37 -75 -1 -24 -5 -43
-9 -43 -16 0 -21 -70 -7 -98 45 -87 47 -89 138 -111 47 -12 95 -21 105 -21 72
0 142 50 176 125 19 42 25 120 10 129 -5 3 -15 35 -22 71 -8 39 -18 65 -25 65
-8 0 -18 9 -24 19 -5 11 -22 22 -37 25 -64 12 -110 14 -142 6z"/>
<path d="M2771 4584 c-28 -23 -37 -25 -93 -20 -35 3 -70 6 -78 6 -27 1 -144
-25 -165 -37 -11 -6 -39 -14 -62 -18 -43 -7 -69 -27 -59 -44 3 -5 -8 -12 -26
-16 -18 -4 -66 -22 -106 -41 -41 -19 -90 -35 -110 -35 -37 -1 -36 -1 10 -11
32 -7 49 -16 53 -29 4 -10 10 -19 15 -19 5 0 10 -8 12 -17 3 -15 4 -15 20 0 9
9 38 21 65 27 26 6 58 21 71 32 17 17 33 21 72 19 32 -1 58 4 72 14 28 19 68
19 94 0 22 -17 56 -19 70 -5 12 12 61 15 102 6 25 -6 38 -4 53 10 10 9 19 22
19 28 0 6 16 42 35 80 19 37 35 75 35 82 0 25 -65 17 -99 -12z"/>
<path d="M1968 4343 c-27 -7 -22 -23 7 -23 16 0 25 6 25 15 0 15 -2 16 -32 8z"/>
<path d="M2540 4296 c0 -18 22 -56 32 -56 23 -1 68 -48 68 -71 0 -18 6 -13 30
24 17 26 30 54 30 61 0 17 -37 27 -67 20 -11 -3 -34 1 -51 10 -32 16 -42 19
-42 12z"/>
<path d="M4666 4228 c-6 -25 7 -42 42 -53 30 -9 29 16 -2 49 -29 32 -32 32
-40 4z"/>
<path d="M4546 4225 c4 -8 15 -15 25 -15 10 0 19 7 19 15 0 9 -9 15 -25 15
-18 0 -23 -4 -19 -15z"/>
<path d="M2070 4170 c0 -5 0 -12 0 -15 0 -3 2 -5 5 -5 3 0 5 3 4 6 0 4 5 11
13 15 10 7 9 9 -4 9 -10 0 -18 -4 -18 -10z"/>
<path d="M2256 4173 c-1 -1 0 -18 2 -38 5 -39 25 -43 30 -7 2 12 10 22 17 22
8 0 12 6 9 14 -4 11 -49 18 -58 9z"/>
<path d="M3377 4146 c-3 -8 -18 -20 -34 -28 -15 -7 -29 -21 -31 -31 -4 -20 30
-37 36 -18 2 6 15 25 28 40 25 30 31 51 15 51 -5 0 -11 -6 -14 -14z"/>
<path d="M3360 4015 c-6 -16 -5 -35 1 -55 9 -24 17 -30 39 -30 40 0 45 44 10
83 -31 33 -38 34 -50 2z"/>
<path d="M1830 3955 c0 -9 9 -15 25 -15 27 0 33 -18 13 -38 -9 -9 -8 -17 2
-37 19 -35 7 -41 -29 -14 -21 15 -31 31 -31 49 0 39 -34 52 -83 33 -30 -12
-35 -18 -26 -29 6 -8 9 -26 6 -40 -4 -22 1 -30 29 -46 38 -22 41 -33 18 -67
-13 -18 -14 -28 -5 -47 14 -32 14 -34 -3 -34 -16 0 -66 -45 -66 -60 0 -14 37
-12 85 4 32 12 40 19 40 40 1 33 32 61 70 64 50 4 76 54 56 107 -4 10 -3 31 3
47 14 38 -6 73 -54 87 -48 14 -50 14 -50 -4z"/>
<path d="M2073 3883 c-24 -8 -14 -54 17 -83 36 -34 37 -40 5 -40 -14 0 -25 -4
-25 -10 0 -5 -11 -10 -24 -10 -14 0 -28 -5 -32 -11 -4 -7 4 -10 22 -8 16 1 41
-3 57 -9 24 -10 27 -17 27 -57 0 -25 -4 -45 -10 -45 -5 0 -10 -6 -10 -14 0
-18 -56 -59 -70 -51 -5 3 -31 -9 -57 -27 -26 -19 -61 -39 -78 -46 -16 -7 -53
-27 -82 -45 -39 -23 -52 -36 -49 -51 4 -29 16 -29 77 -6 45 18 65 20 134 15
60 -5 91 -3 125 9 25 8 71 18 103 22 54 6 74 23 47 39 -5 3 -10 16 -10 29 0
13 -5 37 -11 55 -9 25 -16 31 -40 31 -16 0 -29 5 -29 10 0 6 4 10 8 10 12 0
35 78 27 90 -3 6 -13 10 -21 10 -8 0 -14 5 -14 10 0 16 37 12 44 -5 10 -27 52
-18 65 14 10 23 9 35 -5 67 -9 22 -16 43 -15 49 4 17 -32 35 -71 35 -22 0 -51
6 -66 14 -15 7 -33 11 -39 9z"/>
<path d="M3570 3804 c0 -8 5 -12 10 -9 6 4 8 11 5 16 -9 14 -15 11 -15 -7z"/>
<path d="M4870 3812 c0 -22 13 -42 27 -42 21 0 12 44 -9 48 -10 2 -18 -1 -18
-6z"/>
<path d="M3320 3797 c-8 -7 -21 -25 -28 -40 -6 -15 -20 -30 -29 -33 -35 -11
-46 -21 -48 -41 -2 -28 -63 -103 -84 -103 -9 0 -22 -5 -28 -11 -13 -13 -33 -4
-33 17 0 8 -9 14 -20 14 -14 0 -22 -10 -30 -38 -10 -39 -30 -55 -82 -66 -21
-5 -28 -12 -28 -30 0 -17 -9 -28 -34 -40 -19 -9 -38 -16 -44 -16 -12 0 -24
-73 -16 -94 7 -18 20 -21 29 -6 10 17 44 11 55 -9 6 -13 17 -17 30 -14 12 3
22 -1 26 -10 7 -20 -13 -57 -31 -57 -8 0 -15 -6 -15 -13 0 -20 56 -67 80 -67
13 0 33 -11 46 -26 28 -30 28 -30 8 -38 -18 -7 -74 22 -74 39 -1 17 -29 -38
-30 -57 0 -29 46 -33 104 -9 69 28 83 27 106 -11 30 -51 38 -58 74 -58 18 0
45 -9 59 -20 20 -16 30 -18 52 -10 35 13 88 13 102 -1 8 -8 20 -9 41 -1 43 15
76 -4 80 -46 3 -28 9 -34 53 -49 42 -15 51 -23 59 -53 6 -19 10 -44 10 -54 0
-11 10 -30 22 -43 17 -18 19 -26 10 -35 -7 -7 -12 -22 -12 -34 0 -18 -10 -26
-50 -39 -27 -9 -52 -21 -56 -26 -3 -5 6 -23 20 -40 30 -36 32 -53 8 -71 -20
-15 -76 -88 -71 -92 2 -2 16 -6 31 -10 19 -4 30 -2 36 10 5 9 14 14 21 10 7
-5 4 -16 -10 -36 -12 -16 -19 -35 -17 -42 3 -7 2 -37 -2 -66 -8 -63 4 -75 48
-46 15 10 45 21 67 24 l40 5 1 60 c0 33 -5 69 -11 80 -31 50 -20 120 18 120
21 0 57 51 57 80 0 27 -18 45 -46 45 -27 0 -38 14 -21 27 6 5 33 17 58 27 26
9 58 31 75 51 16 19 35 35 41 35 25 0 12 19 -17 25 -16 4 -30 10 -30 15 0 5
19 24 41 44 l42 35 -24 10 c-14 5 -31 16 -38 25 -11 13 -9 16 16 22 15 3 36 8
45 10 13 4 18 -4 23 -33 3 -21 13 -53 21 -71 8 -18 14 -39 14 -48 0 -23 50
-38 69 -20 13 14 10 24 -25 92 -21 42 -47 82 -56 88 -10 6 -18 20 -18 31 0 12
-18 58 -40 103 -22 44 -40 86 -40 92 0 6 -8 23 -19 38 -10 15 -30 48 -45 75
-15 26 -31 47 -36 47 -6 0 -10 12 -10 28 0 15 -11 44 -25 64 -14 20 -25 41
-25 46 0 17 -75 144 -88 149 -7 3 -21 -2 -31 -11 -25 -23 -38 -20 -49 12 -6
15 -27 45 -47 67 l-35 40 6 -37 c8 -50 -2 -78 -30 -78 -44 0 -60 45 -31 84 21
27 19 36 -8 36 -15 0 -36 16 -60 45 -41 49 -45 50 -67 32z m15 -267 c3 -5 1
-10 -5 -10 -5 0 -24 -13 -42 -30 -35 -34 -38 -35 -62 -17 -16 11 -17 17 -7 36
10 18 18 21 47 15 22 -4 34 -2 34 5 0 14 27 15 35 1z m-245 -79 c0 -26 -38
-81 -63 -90 -26 -10 -43 -3 -28 12 6 6 11 20 11 30 0 25 49 77 67 70 7 -3 13
-13 13 -22z m664 -136 c48 -20 46 -35 -4 -30 -47 4 -60 11 -60 31 0 18 18 18
64 -1z m-546 -110 c13 -11 22 -31 22 -47 0 -23 -4 -28 -24 -28 -39 0 -75 18
-75 37 0 10 -3 31 -7 47 -4 19 -2 31 7 36 12 8 24 2 77 -45z m560 -297 c-6
-18 -28 -21 -28 -4 0 9 7 16 16 16 9 0 14 -5 12 -12z"/>
<path d="M3460 3770 c0 -5 5 -10 10 -10 6 0 10 5 10 10 0 6 -4 10 -10 10 -5 0
-10 -4 -10 -10z"/>
<path d="M1881 3629 c-28 -23 -17 -43 20 -37 18 2 23 8 21 23 -6 32 -15 35
-41 14z"/>
<path d="M2590 3621 c0 -6 5 -13 10 -16 6 -3 10 1 10 9 0 9 -4 16 -10 16 -5 0
-10 -4 -10 -9z"/>
<path d="M1573 3593 c-15 -5 -18 -33 -4 -33 8 0 41 27 41 34 0 4 -24 3 -37 -1z"/>
<path d="M2307 3563 c-4 -3 -7 -11 -7 -17 0 -6 5 -5 12 2 6 6 9 14 7 17 -3 3
-9 2 -12 -2z"/>
<path d="M1491 3281 c-9 -6 -11 -18 -7 -35 4 -15 2 -26 -4 -26 -5 0 -10 7 -10
16 0 8 -4 12 -10 9 -5 -3 -10 -19 -10 -35 0 -15 -6 -31 -12 -33 -10 -4 -9 -8
2 -16 22 -16 29 -14 42 14 6 14 17 25 25 25 7 0 13 8 13 18 1 10 7 3 15 -15
11 -25 18 -31 32 -26 29 11 33 26 10 38 -12 6 -31 25 -42 42 -22 36 -24 37
-44 24z"/>
<path d="M1710 3276 c0 -8 5 -18 11 -21 7 -5 3 -15 -11 -30 -22 -24 -20 -45 5
-45 7 0 15 -7 19 -15 3 -8 18 -15 34 -15 33 0 103 -33 115 -55 9 -17 63 -20
73 -4 4 7 20 8 43 5 90 -16 93 -15 124 42 32 59 30 82 -6 82 -18 0 -28 8 -37
30 -15 37 -41 46 -77 26 -31 -16 -146 -61 -181 -71 -28 -8 -49 8 -67 52 -14
33 -45 46 -45 19z"/>
<path d="M1637 3233 c-14 -13 -6 -33 13 -33 11 0 20 4 20 9 0 13 -26 32 -33
24z"/>
<path d="M4920 3180 c0 -11 5 -20 10 -20 6 0 10 9 10 20 0 11 -4 20 -10 20 -5
0 -10 -9 -10 -20z"/>
<path d="M1716 3111 c-4 -5 -2 -12 3 -15 5 -4 12 -2 15 3 4 5 2 12 -3 15 -5 4
-12 2 -15 -3z"/>
<path d="M5025 3100 c-8 -13 4 -32 16 -25 12 8 12 35 0 35 -6 0 -13 -4 -16
-10z"/>
<path d="M1712 2923 c-28 -33 -34 -57 -30 -114 4 -53 28 -64 47 -22 7 15 17
35 21 43 6 12 24 14 86 12 44 -2 87 -6 97 -8 12 -4 17 0 17 15 0 33 -61 59
-102 43 -36 -13 -55 -4 -60 31 -5 33 -47 33 -76 0z"/>
<path d="M1703 2730 c-29 -12 -31 -60 -4 -84 37 -34 76 18 52 70 -12 26 -15
27 -48 14z"/>
<path d="M1820 2655 c0 -8 9 -15 20 -15 11 0 20 7 20 15 0 8 -9 15 -20 15 -11
0 -20 -7 -20 -15z"/>
<path d="M1784 2589 c-3 -6 -17 -8 -30 -5 -21 6 -24 3 -24 -19 0 -14 5 -25 10
-25 14 0 70 42 70 52 0 12 -18 10 -26 -3z"/>
<path d="M3778 2421 c-2 -16 -1 -37 3 -47 5 -13 8 -3 8 29 1 53 -5 62 -11 18z"/>
<path d="M3970 2401 c0 -12 6 -21 16 -21 9 0 14 7 12 17 -5 25 -28 28 -28 4z"/>
<path d="M3310 2376 c0 -21 5 -26 26 -26 21 0 25 4 22 23 -2 14 -11 23 -25 25
-19 3 -23 -1 -23 -22z"/>
<path d="M3816 2355 c-35 -53 -9 -125 45 -125 19 0 29 -5 29 -15 0 -12 7 -14
28 -9 53 11 55 13 43 28 -8 9 -10 28 -5 50 5 32 4 36 -14 36 -11 0 -33 -7 -48
-15 -31 -16 -41 -7 -26 22 7 13 6 24 -3 36 -17 23 -30 21 -49 -8z"/>
<path d="M3485 2350 c3 -5 13 -10 21 -10 8 0 14 5 14 10 0 6 -9 10 -21 10 -11
0 -17 -4 -14 -10z"/>
<path d="M2232 2338 c6 -18 28 -21 28 -4 0 9 -7 16 -16 16 -9 0 -14 -5 -12
-12z"/>
<path d="M4275 2320 c-3 -5 -2 -16 2 -24 11 -20 38 -3 30 18 -7 18 -23 21 -32
6z"/>
<path d="M4201 2256 c-17 -20 -70 -31 -84 -17 -6 6 -16 11 -21 11 -6 -1 3 -13
21 -28 34 -29 37 -65 6 -76 -20 -8 -32 1 -43 30 -7 18 -17 24 -40 24 -31 0
-37 -9 -19 -27 18 -18 -1 -36 -32 -29 -40 8 -36 -8 6 -28 40 -19 41 -23 19
-47 -20 -22 -12 -47 18 -58 17 -6 37 -1 78 20 30 15 88 39 128 54 55 20 76 33
82 51 8 20 17 24 50 24 36 0 40 3 40 24 0 14 -7 31 -15 39 -15 16 -107 33
-123 23 -5 -3 -18 1 -28 9 -24 18 -29 18 -43 1z"/>
<path d="M2713 2184 c-7 -19 18 -41 55 -51 36 -9 38 4 7 37 -32 34 -53 38 -62
14z"/>
<path d="M3915 2190 c-3 -5 -1 -10 4 -10 6 0 11 5 11 10 0 6 -2 10 -4 10 -3 0
-8 -4 -11 -10z"/>
<path d="M3535 2180 c-7 -11 2 -30 13 -30 4 0 13 9 20 20 11 17 10 20 -7 20
-11 0 -23 -4 -26 -10z"/>
<path d="M3948 2163 c7 -3 16 -2 19 1 4 3 -2 6 -13 5 -11 0 -14 -3 -6 -6z"/>
<path d="M3200 2120 c0 -5 6 -10 14 -10 8 0 18 5 21 10 3 6 -3 10 -14 10 -12
0 -21 -4 -21 -10z"/>
<path d="M2319 1982 c-19 -4 -15 -37 8 -64 16 -18 42 -14 39 5 -5 29 -32 63
-47 59z"/>
</g>
</svg>
