<svg version="1.0" xmlns="http://www.w3.org/2000/svg" width="266.667" height="266.667" viewBox="0 0 200 200"><path d="M33.6 23.6c-1.7 1.6-1 3.9 2.1 7.6 1.3 1.4 1.1 2-2.1 4.8-2.8 2.6-3.3 3.6-2.6 5.4 1.1 3-.4 5.3-4.6 7.1-3.7 1.5-5.4 4.2-3.5 5.5.9.5.2 1.4-2.1 2.8-5.6 3.5-7 8.1-4.3 14.6.9 2.1 3.4 10.3 5.6 18.4 10.9 40.3 34.5 69.8 64.6 80.5 20.2 7.3 57.5 8.8 77.8 3.1 2.8-.8 6.4-1.3 8-1.3 3 .1 13.4-2.3 15.4-3.6 1.3-.7 1.5-4.1.3-4.9-.4-.2-7.7-.7-16.1-1-8.4-.3-15.6-.7-15.8-1-.3-.3.4-1.8 1.6-3.4 2.7-3.9 2.7-5.2-.4-5.2-1.6 0-4.1 1.5-6.7 4.1-4 3.7-4.6 4-8.3 3.4-13.6-2.1-33.3-12.8-42-22.9-17.2-19.9-22.1-34-22.7-66.1l-.3-13 3.5.2c1.9 0 5.8.4 8.5.7 3.6.5 4.4.4 2.9-.3-2.9-1.3-4.5-3.7-1.8-2.8 5.1 1.9-3.2-3-8.9-5.2-9-3.4-15-6.4-17.4-8.8-1.1-1.1-3.9-2.4-6.1-2.8-4.3-.7-6.5-2.4-6-4.6.2-1-1.1-1.5-4.2-1.7-5.7-.4-7.1-1.6-6.3-5.3.3-1.7 0-3.5-.7-4.4-1.6-2-5.4-1.9-7.4.1zM80 52.3c0 4.7-6.9 7.8-23.1 10.2-4.7.7-10.4 2.2-12.7 3.4-3.2 1.6-5.1 1.9-8.6 1.5-3.8-.6-4.6-.4-4.6 1 0 .9-.8 1.6-1.8 1.6-2.6 0-5.4-3.3-4.6-5.5.6-1.5.4-1.6-1.4-.6-1.4.7-2.2 2.3-2.4 4.9l-.4 3.7-1.2-2.7c-1.5-3.5-.7-5.5 2.9-7.3 3.7-1.9 6.9-1.9 6.9 0 0 2 4.9 4 6.4 2.5.7-.7.6-1-.3-1-.8 0-1.1-.6-.7-1.5.3-.8.1-1.5-.4-1.5-.6 0-1-.4-1-.8 0-1 26.4-8.2 29.8-8.2 1.3 0 2.2.6 2.2 1.5 0 .8.7 1.5 1.5 1.5 1.8 0 1.9-1.2.3-2.8-.9-.9.4-1.2 6-1.2 5.2 0 7.2.4 7.2 1.3zm-4.9 10.4c.1.7.9 18.5 1.3 27.3 0 1.9.5 3.8 1.1 4.2.5.4.2 1.4-.8 2.6-2.1 2.3-2.3 3.9-.2 2.2 1.7-1.4 1.3-2.3 4.4 9.8 1.5 6.2 1.8 8.8 1.1 10.3-.8 1.5-.7 1.9.4 1.9.9 0 2 .9 2.6 2.1.7 1.1 1.4 1.8 1.7 1.5.8-.7 3.6 2.3 6.3 6.8 1.3 2.2 3.7 5.5 5.3 7.2 1.5 1.8 2.7 3.6 2.5 3.9-.8 1.5 7 7.7 12 9.5 3.1 1.2 7.1 3.4 8.9 5.1 2.3 2 4.4 2.9 6.8 2.9 1.9 0 3.5.4 3.5.9s1.7 1.5 3.8 2.1c5.4 1.8 6.2 3 1.9 3-2.1 0-6.3-1-9.5-2.2-6.1-2.3-16.8-3.2-19-1.5-.9.7-1.9.4-3.3-.9-1.1-1-2.6-1.9-3.2-2-.7 0-1.8-.2-2.4-.2-.7-.1-1.3-1.3-1.3-2.6 0-2.1-.6-2.5-4.2-3.1-2.4-.4-5.1-1.1-6-1.7-2.5-1.2-2.3-3.8.2-3.1 1 .3 1.8 1 1.7 1.7-.1.6 1.4 1.2 3.6 1.4l3.9.3-3.4-3.6c-2.1-2.4-7.2-5.6-14.6-9.2-6.2-3-11.1-5.7-10.9-6 .3-.2 1.9.3 3.6 1.1 3.3 1.7 7.1 2.1 7.1.7 0-1.5-4.1-6.1-5.5-6.1-.7 0-2.3-.8-3.6-1.9l-2.3-1.8 2.2-1.2c2.8-1.5 2.8-2.4-.3-5.8l-2.5-2.8.6 3 .6 3-2.1-3.3c-2.3-3.5-3.1-3.8-4.9-2-.8.8-1.2.8-1.2.1 0-.6-.7-1-1.7-.9-1 .1-1.9-1-2.5-3-.6-2.6-3.8-6.8-3.8-5.2 0 1.6 2.5 7.6 3.8 9.1.8.9 1.3 2 1 2.3-.7.7-11-4.4-12-6-1.4-2.1-.8-2.8 1.9-2.1 1.5.3 3.2.7 3.8.8 1.3.2 1.3-4.4.1-6.1-.7-1-.4-1.2 1.7-.7 3.1.8 3.6-.8 1.1-4-1.2-1.6-1.8-1.8-3.4-.7-2.7 1.7-3 1.6-3-1.3 0-1.4-.5-2.5-1.1-2.5-.7 0-.9 1-.7 2.5.4 1.8.1 2.5-1 2.5s-.8.8 1.2 2.8c2.2 2.4 2.5 3.1 1.3 4.1-1.6 1.3-3 .1-4.1-3.6-.4-1.1-1.4-2.4-2.2-2.7-.8-.3-1.2-1.1-.9-1.7.4-.6-.2-2.1-1.4-3.3-2.1-2.2-2.1-2.3-.2-4 2.3-2.1 4.4-1.2 3.6 1.5-.7 2.2.2 5.9 1.6 5.9 1.3 0 1.1-5.7-.2-8.3-1.2-2.2-1.2-2.2.9-.3 2 1.7 2.2 1.7 2.8.2 1-2.5-.9-4-3.3-2.7-2.1 1.1-6.4.4-7.5-1.2C35.7 86 39 82 41.5 82c2.7 0 3.9-2.4 2.5-5-1.8-3.4-1.2-5 2-5 1.7 0 3.9-.9 5-2s2.6-2 3.4-2c.8 0 1.8-.4 2.1-1 .3-.5 2-.7 3.8-.4 2.2.4 2.8.3 1.8-.4-1-.7-.5-1.2 2-2 3.1-1 6.5-1.7 9.7-2.1.6 0 1.2.2 1.3.6z"/></svg>